<?xml version="1.0" encoding="UTF-8" standalone="no"?>
<svg xmlns:svg="http://www.w3.org/2000/svg" xmlns="http://www.w3.org/2000/svg" version="1.1" width="575px" height="575px" viewBox="-2 -2 579 579">
    <defs/>
    <g transform="translate(-107.73,-241.82)">
		<circle cx="396" cy="529" r="285" style="fill:#ffffff; stroke:#000000; stroke-width:1;"/>
		<circle cx="396" cy="529" r="281" style="fill:#a72920; stroke:none;"/>
        <g transform="matrix(1.0312,0,0,1.0312,675.23,-24.585)" id="g3264" style="fill:#ffffff;fill-rule:evenodd;stroke:none;">
            <path d="M -364.71,547.58 C -367.91,548.26 -371.79,550.96 -377.73,539.84 -386.58,523.27 -396.74,479.64 -396.74,479.64 -396.74,479.64 -397.91,469.5 -390.41,467.32 -384.62,465.63 -380.9,464.79 -374.57,469.78 -381.78,435.11 -400.27,399.37 -372.45,381.42 L -355.56,359.95 -304.86,339.88 C -304.86,339.88 -287.61,321.93 -283.74,321.93 -283.74,321.93 -229.17,329.67 -214.39,336.71 L -152.08,410.29 -169.33,469.08 C -169.33,469.08 -159.39,460.08 -149.61,470.13 -146.26,473.58 -146.64,477.54 -149.26,484.92 -155.3,501.91 -160.06,519.17 -166.86,540.19 -168.75,546.02 -172.41,546.53 -178.83,546.53 L -178.83,540.89 -172.85,537.02 C -172.85,537.02 -159.73,495.71 -155.25,479.99 -153.26,473.02 -155.24,468.93 -166.51,473.65 -171.33,475.67 -176.72,480.34 -176.72,480.34 -176.72,480.34 -162.9,414.58 -163.91,406.98 -163.91,406.98 -208.48,357.28 -229.88,356.78 L -225.65,365.93 C -229.53,364.25 -244.97,355.19 -251.7,355.02 -251.7,355.02 -236.37,368.52 -235.86,371.21 -251.7,370.66 -288.15,361.87 -304.16,349.74 -304.16,349.74 -326.34,372.43 -326.34,376.14 -326.34,376.14 -346.89,375.51 -357.67,381.07 -357.67,381.07 -371.26,398.68 -372.1,406.77 -372.1,406.77 -372.93,465.84 -367.88,479.99 -367.88,479.99 -374.81,476.45 -379.49,473.65 -384.95,470.4 -390.76,470.22 -389.7,479.64 -387.98,495.04 -377.7,519.1 -372.45,535.26 -370.38,541.65 -370.34,540.83 -365.06,541.25 L -364.71,547.58 z"/>
            <g>
                <path d="M -272.13,651.13 C -313.06,651.13 -346.29,673.61 -346.29,701.29 -346.29,728.97 -313.06,751.45 -272.13,751.45 -231.2,751.45 -198.01,728.97 -198.01,701.29 -198.01,673.61 -231.2,651.13 -272.13,651.13 z M -271.73,658.29 C -266.94,658.29 -263.07,659.77 -263.07,661.6 -263.07,663.44 -266.94,664.91 -271.73,664.91 -276.51,664.91 -280.41,663.44 -280.41,661.6 -280.41,659.77 -276.51,658.29 -271.73,658.29 z M -293.91,661.1 C -289.13,661.1 -285.23,662.58 -285.23,664.41 -285.23,666.25 -289.13,667.76 -293.91,667.76 -298.7,667.76 -302.57,666.25 -302.57,664.41 -302.57,662.58 -298.7,661.1 -293.91,661.1 z M -249.57,661.1 C -244.79,661.1 -240.91,662.58 -240.91,664.41 -240.91,666.25 -244.79,667.76 -249.57,667.76 -254.35,667.76 -258.23,666.25 -258.23,664.41 -258.23,662.58 -254.35,661.1 -249.57,661.1 z M -313.04,669.95 C -308.26,669.95 -304.38,671.45 -304.38,673.29 -304.38,675.12 -308.26,676.6 -313.04,676.6 -317.82,676.6 -321.7,675.12 -321.7,673.29 -321.7,671.45 -317.82,669.95 -313.04,669.95 z M -230.45,669.95 C -225.66,669.95 -221.76,671.45 -221.76,673.29 -221.76,675.12 -225.66,676.6 -230.45,676.6 -235.23,676.6 -239.1,675.12 -239.1,673.29 -239.1,671.45 -235.23,669.95 -230.45,669.95 z M -271.73,677.6 C -266.94,677.6 -263.07,679.11 -263.07,680.95 -263.07,682.78 -266.94,684.26 -271.73,684.26 -276.51,684.26 -280.41,682.78 -280.41,680.95 -280.41,679.11 -276.51,677.6 -271.73,677.6 z M -324.73,683.07 C -319.94,683.07 -316.07,684.55 -316.07,686.38 -316.07,688.22 -319.94,689.7 -324.73,689.7 -329.51,689.7 -333.38,688.22 -333.38,686.38 -333.38,684.55 -329.51,683.07 -324.73,683.07 z M -218.76,683.07 C -213.98,683.07 -210.07,684.55 -210.07,686.38 -210.07,688.22 -213.98,689.7 -218.76,689.7 -223.54,689.7 -227.41,688.22 -227.41,686.38 -227.41,684.55 -223.54,683.07 -218.76,683.07 z M -292.48,683.45 C -287.69,683.45 -283.82,684.95 -283.82,686.79 -283.82,688.62 -287.69,690.1 -292.48,690.1 -297.26,690.1 -301.16,688.62 -301.16,686.79 -301.16,684.95 -297.26,683.45 -292.48,683.45 z M -250.98,683.45 C -246.19,683.45 -242.32,684.95 -242.32,686.79 -242.32,688.62 -246.19,690.1 -250.98,690.1 -255.76,690.1 -259.66,688.62 -259.66,686.79 -259.66,684.95 -255.76,683.45 -250.98,683.45 z M -329.73,698.16 C -324.94,698.16 -321.07,699.67 -321.07,701.51 -321.07,703.34 -324.94,704.82 -329.73,704.82 -334.51,704.82 -338.41,703.34 -338.41,701.51 -338.41,699.67 -334.51,698.16 -329.73,698.16 z M -301.73,698.16 C -296.94,698.16 -293.07,699.67 -293.07,701.51 -293.07,703.34 -296.94,704.82 -301.73,704.82 -306.51,704.82 -310.41,703.34 -310.41,701.51 -310.41,699.67 -306.51,698.16 -301.73,698.16 z M -241.73,698.16 C -236.94,698.16 -233.07,699.67 -233.07,701.51 -233.07,703.34 -236.94,704.82 -241.73,704.82 -246.51,704.82 -250.41,703.34 -250.41,701.51 -250.41,699.67 -246.51,698.16 -241.73,698.16 z M -215.73,698.16 C -210.94,698.16 -207.07,699.67 -207.07,701.51 -207.07,703.34 -210.94,704.82 -215.73,704.82 -220.51,704.82 -224.41,703.34 -224.41,701.51 -224.41,699.67 -220.51,698.16 -215.73,698.16 z M -271.73,698.29 C -266.94,698.29 -263.07,699.77 -263.07,701.6 -263.07,703.44 -266.94,704.91 -271.73,704.91 -276.51,704.91 -280.41,703.44 -280.41,701.6 -280.41,699.77 -276.51,698.29 -271.73,698.29 z M -251.38,710.35 C -246.6,710.35 -242.73,711.86 -242.73,713.7 -242.73,715.53 -246.6,717.01 -251.38,717.01 -256.17,717.01 -260.04,715.53 -260.04,713.7 -260.04,711.86 -256.17,710.35 -251.38,710.35 z M -291.07,710.76 C -286.29,710.76 -282.41,712.27 -282.41,714.1 -282.41,715.94 -286.29,717.41 -291.07,717.41 -295.85,717.41 -299.76,715.94 -299.76,714.1 -299.76,712.27 -295.85,710.76 -291.07,710.76 z M -221.35,712.79 C -216.57,712.79 -212.7,714.27 -212.7,716.1 -212.7,717.94 -216.57,719.45 -221.35,719.45 -226.13,719.45 -230.04,717.94 -230.04,716.1 -230.04,714.27 -226.13,712.79 -221.35,712.79 z M -325.95,713.2 C -321.16,713.2 -317.29,714.67 -317.29,716.51 -317.29,718.34 -321.16,719.82 -325.95,719.82 -330.73,719.82 -334.6,718.34 -334.6,716.51 -334.6,714.67 -330.73,713.2 -325.95,713.2 z M -271.73,718.82 C -266.94,718.82 -263.07,720.33 -263.07,722.16 -263.07,724 -266.94,725.48 -271.73,725.48 -276.51,725.48 -280.41,724 -280.41,722.16 -280.41,720.33 -276.51,718.82 -271.73,718.82 z M -233.26,725.66 C -228.48,725.66 -224.6,727.17 -224.6,729.01 -224.6,730.84 -228.48,732.32 -233.26,732.32 -238.04,732.32 -241.91,730.84 -241.91,729.01 -241.91,727.17 -238.04,725.66 -233.26,725.66 z M -312.04,726.07 C -307.26,726.07 -303.38,727.58 -303.38,729.41 -303.38,731.25 -307.26,732.73 -312.04,732.73 -316.82,732.73 -320.7,731.25 -320.7,729.41 -320.7,727.58 -316.82,726.07 -312.04,726.07 z M -249.57,734.35 C -244.79,734.35 -240.91,735.83 -240.91,737.66 -240.91,739.5 -244.79,740.98 -249.57,740.98 -254.35,740.98 -258.23,739.5 -258.23,737.66 -258.23,735.83 -254.35,734.35 -249.57,734.35 z M -292.88,734.76 C -288.1,734.76 -284.23,736.24 -284.23,738.07 -284.23,739.91 -288.1,741.38 -292.88,741.38 -297.67,741.38 -301.57,739.91 -301.57,738.07 -301.57,736.24 -297.67,734.76 -292.88,734.76 z M -271.73,738.16 C -266.94,738.16 -263.07,739.67 -263.07,741.51 -263.07,743.34 -266.94,744.82 -271.73,744.82 -276.51,744.82 -280.41,743.34 -280.41,741.51 -280.41,739.67 -276.51,738.16 -271.73,738.16 z"/>
                <path transform="translate(107.73,241.82)" d="M -382.97,186.16 -382.97,186.53 C -411.63,187.99 -440.75,187.2 -452.66,191.28 -464.07,195.2 -461.97,210.32 -465.44,230.16 -472.12,268.34 -479.22,276.25 -467.25,318.81 -465.12,326.39 -462.65,340.64 -454.87,354.06 -447.1,367.48 -434.01,380.07 -422.62,386.81 -422.62,386.81 -415.68,376.47 -379.87,375.78 -344.05,376.47 -337.12,386.81 -337.12,386.81 -325.74,380.07 -312.65,367.48 -304.87,354.06 -297.1,340.64 -294.63,326.39 -292.5,318.81 -280.53,276.25 -287.63,268.34 -294.31,230.16 -297.78,210.32 -295.68,195.2 -307.09,191.28 -319,187.2 -348.12,187.99 -376.78,186.53 L -376.78,186.16 C -377.81,186.22 -378.84,186.29 -379.87,186.34 -380.91,186.29 -381.94,186.22 -382.97,186.16 z M -426.5,204.53 C -418.73,204.33 -410.93,206.58 -404.84,211.5 -385.4,227.75 -383.06,260.04 -399.56,279.16 -409.73,292.23 -430.87,295 -443.69,284.25 -463.52,270.51 -469.45,239.9 -454.97,220.28 -449.15,210.32 -437.85,204.82 -426.5,204.53 z M -334.69,204.53 C -334.2,204.52 -333.74,204.52 -333.25,204.53 -321.9,204.82 -310.6,210.32 -304.78,220.28 -290.3,239.9 -296.23,270.51 -316.06,284.25 -328.88,295 -350.02,292.23 -360.19,279.16 -376.69,260.04 -374.35,227.75 -354.91,211.5 -349.2,206.89 -341.97,204.63 -334.69,204.53 z"/>
                <path d="M -317.55,452.32 C -318.16,452.32 -318.78,452.34 -319.4,452.38 -339.65,452.78 -352.52,475.59 -348.8,493.98 -346.45,511.37 -331.09,529.23 -312.4,526.41 -295.59,523.43 -285.97,504.98 -286.84,488.91 -286.92,471.67 -298.71,452.24 -317.55,452.32 z M -316.96,456.29 C -304.25,456.35 -295.07,469.35 -292.99,481.63 -289.71,497.12 -296.69,517.32 -312.77,521.16 -328.13,523.73 -340.65,508.41 -343.09,493.7 -346.64,477.17 -335.65,456.29 -318.21,456.32 -317.79,456.29 -317.37,456.29 -316.96,456.29 z"/>
                <path d="M -317.91,462.31 C -331.67,462.77 -339.55,478.81 -337.53,491.16 -335.99,502.96 -326.84,516.85 -313.59,515.16 -298.94,509.93 -295.2,490.67 -300.31,477.31 -303.06,469.86 -309.22,461.84 -317.91,462.31 z"/>
                <path d="M -226.73,452.32 C -226.12,452.32 -225.51,452.34 -224.89,452.38 -204.63,452.78 -191.76,475.59 -195.48,493.98 -197.83,511.37 -213.19,529.23 -231.89,526.41 -248.69,523.43 -258.31,504.98 -257.45,488.91 -257.37,471.67 -245.57,452.24 -226.73,452.32 z M -227.32,456.29 C -240.03,456.35 -249.21,469.35 -251.29,481.63 -254.58,497.12 -247.6,517.32 -231.51,521.16 -216.15,523.73 -203.64,508.41 -201.2,493.7 -197.64,477.17 -208.64,456.29 -226.07,456.32 -226.49,456.29 -226.91,456.29 -227.32,456.29 z"/>
                <path d="M -226.38,462.31 C -212.62,462.77 -204.74,478.81 -206.75,491.16 -208.29,502.96 -217.44,516.85 -230.69,515.16 -245.34,509.93 -249.09,490.67 -243.97,477.31 -241.23,469.86 -235.07,461.84 -226.38,462.31 z"/>
                <path d="M -275.09,641.23 C -321.36,641.39 -339.11,664.65 -345.15,684.32 -326.67,655.14 -295.17,648.31 -272.3,647.98 -272.2,647.98 -272.1,647.97 -271.99,647.98 -249.13,648.31 -217.63,655.14 -199.15,684.32 -205.27,664.39 -225.08,640.78 -273.15,641.26 -273.79,641.25 -274.45,641.22 -275.09,641.23 z"/>
                <path d="M -269.74,623.79 C -271.44,623.8 -273.21,623.84 -274.99,623.91 -284.27,623.87 -292.28,624.71 -299.21,626.29 -299.59,626.34 -299.95,626.39 -300.34,626.45 L -300.37,626.54 C -321.52,631.7 -332.27,644.24 -337.59,661.63 -326.74,651.36 -314.92,645.02 -303.3,641.32 L -303.34,641.48 C -297.11,639.51 -285.86,636.92 -272.3,636.79 -272.2,636.79 -272.1,636.79 -271.99,636.79 -258.44,636.92 -247.19,639.51 -240.96,641.48 L -240.99,641.32 C -229.37,645.02 -217.57,651.35 -206.71,661.63 -213.86,638.25 -230.83,623.53 -269.74,623.79 z"/>
            </g>
        </g>
    </g>
</svg>
